<svg xmlns="http://www.w3.org/2000/svg" xmlns:xlink="http://www.w3.org/1999/xlink" width="512" zoomAndPan="magnify" viewBox="0 0 384 383.999986" height="512" preserveAspectRatio="xMidYMid meet" version="1.2"><defs><clipPath id="9f327ad982"><path d="M 192 0 C 85.960938 0 0 85.960938 0 192 C 0 298.039062 85.960938 384 192 384 C 298.039062 384 384 298.039062 384 192 C 384 85.960938 298.039062 0 192 0 Z M 192 0 "/></clipPath><clipPath id="631280f2e1"><path d="M 80.917969 81.335938 L 302.917969 81.335938 L 302.917969 302.585938 L 80.917969 302.585938 Z M 80.917969 81.335938 "/></clipPath></defs><g id="923cecbe26"><g clip-rule="nonzero" clip-path="url(#9f327ad982)"><rect x="0" width="384" y="0" height="383.999986" style="fill:#000000;fill-opacity:1;stroke:none;"/></g><g clip-rule="nonzero" clip-path="url(#631280f2e1)"><path style=" stroke:none;fill-rule:evenodd;fill:#ffffff;fill-opacity:1;" d="M 302.898438 81.335938 L 254.375 127.023438 L 254.375 100.945312 L 212.300781 100.945312 L 212.300781 166.753906 L 188.824219 188.683594 L 80.9375 302.503906 L 195.273438 195.136719 Z M 188.308594 290.378906 C 208.6875 290.378906 225.480469 284.445312 236.832031 272.832031 C 247.925781 261.738281 254.375 245.226562 254.375 223.019531 L 254.375 145.597656 L 212.300781 189.996094 L 212.300781 221.234375 C 212.300781 242.90625 202.753906 252.214844 187.273438 252.214844 C 177.472656 252.214844 168.957031 248.34375 160.957031 241.378906 L 133.332031 268.726562 C 145.972656 280.832031 163.519531 290.378906 188.308594 290.378906 Z M 188.308594 290.378906 "/></g></g></svg>