<svg xmlns="http://www.w3.org/2000/svg" xmlns:xlink="http://www.w3.org/1999/xlink" width="512" zoomAndPan="magnify" viewBox="0 0 384 383.999986" height="512" preserveAspectRatio="xMidYMid meet" version="1.2"><defs><clipPath id="14ff5a0454"><path d="M 94.304688 94.671875 L 290 94.671875 L 290 289.671875 L 94.304688 289.671875 Z M 94.304688 94.671875 "/></clipPath></defs><g id="d84d4f6608"><rect x="0" width="384" y="0" height="383.999986" style="fill:#ffffff;fill-opacity:1;stroke:none;"/><rect x="0" width="384" y="0" height="383.999986" style="fill:#000000;fill-opacity:1;stroke:none;"/><g clip-rule="nonzero" clip-path="url(#14ff5a0454)"><path style=" stroke:none;fill-rule:evenodd;fill:#ffffff;fill-opacity:1;" d="M 289.671875 94.671875 L 246.964844 134.878906 L 246.964844 111.929688 L 209.9375 111.929688 L 209.9375 169.847656 L 189.273438 189.148438 L 94.324219 289.320312 L 194.949219 194.824219 Z M 188.820312 278.648438 C 206.757812 278.648438 221.535156 273.425781 231.527344 263.207031 C 241.289062 253.445312 246.964844 238.910156 246.964844 219.367188 L 246.964844 151.230469 L 209.9375 190.300781 L 209.9375 217.792969 C 209.9375 236.867188 201.535156 245.058594 187.910156 245.058594 C 179.28125 245.058594 171.789062 241.652344 164.75 235.523438 L 140.4375 259.59375 C 151.5625 270.246094 167.003906 278.648438 188.820312 278.648438 Z M 188.820312 278.648438 "/></g></g></svg>